<svg xmlns="http://www.w3.org/2000/svg" viewBox="-20 0 1038.4 506.3" width="1038.4" height="506.3"><rect x="399" y="20" width="172.8" height="35.2" fill="#fff" stroke="#000" stroke-width="1"/><text x="485.4" y="44.2" font-family="sans-serif" font-size="22" text-anchor="middle" fill="#000">家电维修预约系统</text><rect x="99" y="110" width="137.60000000000002" height="35.2" fill="#fff" stroke="#000" stroke-width="1"/><text x="167.8" y="134.2" font-family="sans-serif" font-size="22" text-anchor="middle" fill="#000">管理员子系统</text><rect x="0" y="200" width="26.4" height="286.3" fill="#fff" stroke="#000" stroke-width="1"/><text x="13.2" y="273.85" font-family="sans-serif" font-size="22" text-anchor="middle" fill="#000">工</text><text x="13.2" y="299.15000000000003" font-family="sans-serif" font-size="22" text-anchor="middle" fill="#000">作</text><text x="13.2" y="324.45000000000005" font-family="sans-serif" font-size="22" text-anchor="middle" fill="#000">台</text><text x="13.2" y="349.75" font-family="sans-serif" font-size="22" text-anchor="middle" fill="#000">数</text><text x="13.2" y="375.05" font-family="sans-serif" font-size="22" text-anchor="middle" fill="#000">据</text><text x="13.2" y="400.35" font-family="sans-serif" font-size="22" text-anchor="middle" fill="#000">看</text><text x="13.2" y="425.65000000000003" font-family="sans-serif" font-size="22" text-anchor="middle" fill="#000">板</text><rect x="42" y="200" width="26.4" height="286.3" fill="#fff" stroke="#000" stroke-width="1"/><text x="55.2" y="311.80000000000007" font-family="sans-serif" font-size="22" text-anchor="middle" fill="#000">用</text><text x="55.2" y="337.1000000000001" font-family="sans-serif" font-size="22" text-anchor="middle" fill="#000">户</text><text x="55.2" y="362.4000000000001" font-family="sans-serif" font-size="22" text-anchor="middle" fill="#000">管</text><text x="55.2" y="387.70000000000005" font-family="sans-serif" font-size="22" text-anchor="middle" fill="#000">理</text><rect x="84" y="200" width="26.4" height="286.3" fill="#fff" stroke="#000" stroke-width="1"/><text x="97.2" y="311.80000000000007" font-family="sans-serif" font-size="22" text-anchor="middle" fill="#000">师</text><text x="97.2" y="337.1000000000001" font-family="sans-serif" font-size="22" text-anchor="middle" fill="#000">傅</text><text x="97.2" y="362.4000000000001" font-family="sans-serif" font-size="22" text-anchor="middle" fill="#000">管</text><text x="97.2" y="387.70000000000005" font-family="sans-serif" font-size="22" text-anchor="middle" fill="#000">理</text><rect x="126" y="200" width="26.4" height="286.3" fill="#fff" stroke="#000" stroke-width="1"/><text x="139.2" y="311.80000000000007" font-family="sans-serif" font-size="22" text-anchor="middle" fill="#000">师</text><text x="139.2" y="337.1000000000001" font-family="sans-serif" font-size="22" text-anchor="middle" fill="#000">傅</text><text x="139.2" y="362.4000000000001" font-family="sans-serif" font-size="22" text-anchor="middle" fill="#000">审</text><text x="139.2" y="387.70000000000005" font-family="sans-serif" font-size="22" text-anchor="middle" fill="#000">核</text><rect x="168" y="200" width="26.4" height="286.3" fill="#fff" stroke="#000" stroke-width="1"/><text x="181.2" y="273.85" font-family="sans-serif" font-size="22" text-anchor="middle" fill="#000">订</text><text x="181.2" y="299.15000000000003" font-family="sans-serif" font-size="22" text-anchor="middle" fill="#000">单</text><text x="181.2" y="324.45000000000005" font-family="sans-serif" font-size="22" text-anchor="middle" fill="#000">审</text><text x="181.2" y="349.75" font-family="sans-serif" font-size="22" text-anchor="middle" fill="#000">核</text><text x="181.2" y="375.05" font-family="sans-serif" font-size="22" text-anchor="middle" fill="#000">与</text><text x="181.2" y="400.35" font-family="sans-serif" font-size="22" text-anchor="middle" fill="#000">派</text><text x="181.2" y="425.65000000000003" font-family="sans-serif" font-size="22" text-anchor="middle" fill="#000">单</text><rect x="210" y="200" width="26.4" height="286.3" fill="#fff" stroke="#000" stroke-width="1"/><text x="223.2" y="286.5" font-family="sans-serif" font-size="22" text-anchor="middle" fill="#000">家</text><text x="223.2" y="311.8" font-family="sans-serif" font-size="22" text-anchor="middle" fill="#000">电</text><text x="223.2" y="337.1" font-family="sans-serif" font-size="22" text-anchor="middle" fill="#000">分</text><text x="223.2" y="362.4" font-family="sans-serif" font-size="22" text-anchor="middle" fill="#000">类</text><text x="223.2" y="387.7" font-family="sans-serif" font-size="22" text-anchor="middle" fill="#000">管</text><text x="223.2" y="413" font-family="sans-serif" font-size="22" text-anchor="middle" fill="#000">理</text><rect x="252" y="200" width="26.4" height="286.3" fill="#fff" stroke="#000" stroke-width="1"/><text x="265.2" y="286.5" font-family="sans-serif" font-size="22" text-anchor="middle" fill="#000">自</text><text x="265.2" y="311.8" font-family="sans-serif" font-size="22" text-anchor="middle" fill="#000">动</text><text x="265.2" y="337.1" font-family="sans-serif" font-size="22" text-anchor="middle" fill="#000">审</text><text x="265.2" y="362.4" font-family="sans-serif" font-size="22" text-anchor="middle" fill="#000">核</text><text x="265.2" y="387.7" font-family="sans-serif" font-size="22" text-anchor="middle" fill="#000">控</text><text x="265.2" y="413" font-family="sans-serif" font-size="22" text-anchor="middle" fill="#000">制</text><rect x="438" y="110" width="155.2" height="35.2" fill="#fff" stroke="#000" stroke-width="1"/><text x="515.6" y="134.2" font-family="sans-serif" font-size="22" text-anchor="middle" fill="#000">普通用户子系统</text><rect x="318" y="200" width="26.4" height="286.3" fill="#fff" stroke="#000" stroke-width="1"/><text x="331.2" y="273.85" font-family="sans-serif" font-size="22" text-anchor="middle" fill="#000">账</text><text x="331.2" y="299.15000000000003" font-family="sans-serif" font-size="22" text-anchor="middle" fill="#000">号</text><text x="331.2" y="324.45000000000005" font-family="sans-serif" font-size="22" text-anchor="middle" fill="#000">注</text><text x="331.2" y="349.75" font-family="sans-serif" font-size="22" text-anchor="middle" fill="#000">册</text><text x="331.2" y="375.05" font-family="sans-serif" font-size="22" text-anchor="middle" fill="#000">与</text><text x="331.2" y="400.35" font-family="sans-serif" font-size="22" text-anchor="middle" fill="#000">登</text><text x="331.2" y="425.65000000000003" font-family="sans-serif" font-size="22" text-anchor="middle" fill="#000">录</text><rect x="360" y="200" width="26.4" height="286.3" fill="#fff" stroke="#000" stroke-width="1"/><text x="373.2" y="286.5" font-family="sans-serif" font-size="22" text-anchor="middle" fill="#000">个</text><text x="373.2" y="311.8" font-family="sans-serif" font-size="22" text-anchor="middle" fill="#000">人</text><text x="373.2" y="337.1" font-family="sans-serif" font-size="22" text-anchor="middle" fill="#000">中</text><text x="373.2" y="362.4" font-family="sans-serif" font-size="22" text-anchor="middle" fill="#000">心</text><text x="373.2" y="387.7" font-family="sans-serif" font-size="22" text-anchor="middle" fill="#000">维</text><text x="373.2" y="413" font-family="sans-serif" font-size="22" text-anchor="middle" fill="#000">护</text><rect x="402" y="200" width="26.4" height="286.3" fill="#fff" stroke="#000" stroke-width="1"/><text x="415.2" y="286.5" font-family="sans-serif" font-size="22" text-anchor="middle" fill="#000">服</text><text x="415.2" y="311.8" font-family="sans-serif" font-size="22" text-anchor="middle" fill="#000">务</text><text x="415.2" y="337.1" font-family="sans-serif" font-size="22" text-anchor="middle" fill="#000">地</text><text x="415.2" y="362.4" font-family="sans-serif" font-size="22" text-anchor="middle" fill="#000">址</text><text x="415.2" y="387.7" font-family="sans-serif" font-size="22" text-anchor="middle" fill="#000">管</text><text x="415.2" y="413" font-family="sans-serif" font-size="22" text-anchor="middle" fill="#000">理</text><rect x="444" y="200" width="26.4" height="286.3" fill="#fff" stroke="#000" stroke-width="1"/><text x="457.2" y="286.5" font-family="sans-serif" font-size="22" text-anchor="middle" fill="#000">家</text><text x="457.2" y="311.8" font-family="sans-serif" font-size="22" text-anchor="middle" fill="#000">电</text><text x="457.2" y="337.1" font-family="sans-serif" font-size="22" text-anchor="middle" fill="#000">分</text><text x="457.2" y="362.4" font-family="sans-serif" font-size="22" text-anchor="middle" fill="#000">类</text><text x="457.2" y="387.7" font-family="sans-serif" font-size="22" text-anchor="middle" fill="#000">浏</text><text x="457.2" y="413" font-family="sans-serif" font-size="22" text-anchor="middle" fill="#000">览</text><rect x="486" y="200" width="26.4" height="286.3" fill="#fff" stroke="#000" stroke-width="1"/><text x="499.2" y="286.5" font-family="sans-serif" font-size="22" text-anchor="middle" fill="#000">报</text><text x="499.2" y="311.8" font-family="sans-serif" font-size="22" text-anchor="middle" fill="#000">修</text><text x="499.2" y="337.1" font-family="sans-serif" font-size="22" text-anchor="middle" fill="#000">订</text><text x="499.2" y="362.4" font-family="sans-serif" font-size="22" text-anchor="middle" fill="#000">单</text><text x="499.2" y="387.7" font-family="sans-serif" font-size="22" text-anchor="middle" fill="#000">提</text><text x="499.2" y="413" font-family="sans-serif" font-size="22" text-anchor="middle" fill="#000">交</text><rect x="528" y="200" width="26.4" height="286.3" fill="#fff" stroke="#000" stroke-width="1"/><text x="541.2" y="273.85" font-family="sans-serif" font-size="22" text-anchor="middle" fill="#000">订</text><text x="541.2" y="299.15000000000003" font-family="sans-serif" font-size="22" text-anchor="middle" fill="#000">单</text><text x="541.2" y="324.45000000000005" font-family="sans-serif" font-size="22" text-anchor="middle" fill="#000">跟</text><text x="541.2" y="349.75" font-family="sans-serif" font-size="22" text-anchor="middle" fill="#000">踪</text><text x="541.2" y="375.05" font-family="sans-serif" font-size="22" text-anchor="middle" fill="#000">与</text><text x="541.2" y="400.35" font-family="sans-serif" font-size="22" text-anchor="middle" fill="#000">管</text><text x="541.2" y="425.65000000000003" font-family="sans-serif" font-size="22" text-anchor="middle" fill="#000">理</text><rect x="570" y="200" width="26.4" height="286.3" fill="#fff" stroke="#000" stroke-width="1"/><text x="583.2" y="311.80000000000007" font-family="sans-serif" font-size="22" text-anchor="middle" fill="#000">支</text><text x="583.2" y="337.1000000000001" font-family="sans-serif" font-size="22" text-anchor="middle" fill="#000">付</text><text x="583.2" y="362.4000000000001" font-family="sans-serif" font-size="22" text-anchor="middle" fill="#000">确</text><text x="583.2" y="387.70000000000005" font-family="sans-serif" font-size="22" text-anchor="middle" fill="#000">认</text><rect x="612" y="200" width="26.4" height="286.3" fill="#fff" stroke="#000" stroke-width="1"/><text x="625.2" y="311.80000000000007" font-family="sans-serif" font-size="22" text-anchor="middle" fill="#000">服</text><text x="625.2" y="337.1000000000001" font-family="sans-serif" font-size="22" text-anchor="middle" fill="#000">务</text><text x="625.2" y="362.4000000000001" font-family="sans-serif" font-size="22" text-anchor="middle" fill="#000">评</text><text x="625.2" y="387.70000000000005" font-family="sans-serif" font-size="22" text-anchor="middle" fill="#000">价</text><rect x="798" y="110" width="155.2" height="35.2" fill="#fff" stroke="#000" stroke-width="1"/><text x="875.6" y="134.2" font-family="sans-serif" font-size="22" text-anchor="middle" fill="#000">维修师傅子系统</text><rect x="678" y="200" width="26.4" height="286.3" fill="#fff" stroke="#000" stroke-width="1"/><text x="691.2" y="273.85" font-family="sans-serif" font-size="22" text-anchor="middle" fill="#000">账</text><text x="691.2" y="299.15000000000003" font-family="sans-serif" font-size="22" text-anchor="middle" fill="#000">号</text><text x="691.2" y="324.45000000000005" font-family="sans-serif" font-size="22" text-anchor="middle" fill="#000">注</text><text x="691.2" y="349.75" font-family="sans-serif" font-size="22" text-anchor="middle" fill="#000">册</text><text x="691.2" y="375.05" font-family="sans-serif" font-size="22" text-anchor="middle" fill="#000">与</text><text x="691.2" y="400.35" font-family="sans-serif" font-size="22" text-anchor="middle" fill="#000">登</text><text x="691.2" y="425.65000000000003" font-family="sans-serif" font-size="22" text-anchor="middle" fill="#000">录</text><rect x="720" y="200" width="26.4" height="286.3" fill="#fff" stroke="#000" stroke-width="1"/><text x="733.2" y="223.25" font-family="sans-serif" font-size="22" text-anchor="middle" fill="#000">师</text><text x="733.2" y="248.55" font-family="sans-serif" font-size="22" text-anchor="middle" fill="#000">傅</text><text x="733.2" y="273.85" font-family="sans-serif" font-size="22" text-anchor="middle" fill="#000">资</text><text x="733.2" y="299.15" font-family="sans-serif" font-size="22" text-anchor="middle" fill="#000">料</text><text x="733.2" y="324.45" font-family="sans-serif" font-size="22" text-anchor="middle" fill="#000">维</text><text x="733.2" y="349.75" font-family="sans-serif" font-size="22" text-anchor="middle" fill="#000">护</text><text x="733.2" y="375.05" font-family="sans-serif" font-size="22" text-anchor="middle" fill="#000">与</text><text x="733.2" y="400.35" font-family="sans-serif" font-size="22" text-anchor="middle" fill="#000">资</text><text x="733.2" y="425.65" font-family="sans-serif" font-size="22" text-anchor="middle" fill="#000">质</text><text x="733.2" y="450.95000000000005" font-family="sans-serif" font-size="22" text-anchor="middle" fill="#000">上</text><text x="733.2" y="476.25" font-family="sans-serif" font-size="22" text-anchor="middle" fill="#000">传</text><rect x="762" y="200" width="26.4" height="286.3" fill="#fff" stroke="#000" stroke-width="1"/><text x="775.2" y="248.54999999999998" font-family="sans-serif" font-size="22" text-anchor="middle" fill="#000">待</text><text x="775.2" y="273.84999999999997" font-family="sans-serif" font-size="22" text-anchor="middle" fill="#000">接</text><text x="775.2" y="299.15" font-family="sans-serif" font-size="22" text-anchor="middle" fill="#000">单</text><text x="775.2" y="324.45" font-family="sans-serif" font-size="22" text-anchor="middle" fill="#000">池</text><text x="775.2" y="349.75" font-family="sans-serif" font-size="22" text-anchor="middle" fill="#000">浏</text><text x="775.2" y="375.04999999999995" font-family="sans-serif" font-size="22" text-anchor="middle" fill="#000">览</text><text x="775.2" y="400.35" font-family="sans-serif" font-size="22" text-anchor="middle" fill="#000">与</text><text x="775.2" y="425.65" font-family="sans-serif" font-size="22" text-anchor="middle" fill="#000">抢</text><text x="775.2" y="450.95" font-family="sans-serif" font-size="22" text-anchor="middle" fill="#000">单</text><rect x="804" y="200" width="26.4" height="286.3" fill="#fff" stroke="#000" stroke-width="1"/><text x="817.2" y="286.5" font-family="sans-serif" font-size="22" text-anchor="middle" fill="#000">当</text><text x="817.2" y="311.8" font-family="sans-serif" font-size="22" text-anchor="middle" fill="#000">前</text><text x="817.2" y="337.1" font-family="sans-serif" font-size="22" text-anchor="middle" fill="#000">任</text><text x="817.2" y="362.4" font-family="sans-serif" font-size="22" text-anchor="middle" fill="#000">务</text><text x="817.2" y="387.7" font-family="sans-serif" font-size="22" text-anchor="middle" fill="#000">管</text><text x="817.2" y="413" font-family="sans-serif" font-size="22" text-anchor="middle" fill="#000">理</text><rect x="846" y="200" width="26.4" height="286.3" fill="#fff" stroke="#000" stroke-width="1"/><text x="859.2" y="286.5" font-family="sans-serif" font-size="22" text-anchor="middle" fill="#000">维</text><text x="859.2" y="311.8" font-family="sans-serif" font-size="22" text-anchor="middle" fill="#000">修</text><text x="859.2" y="337.1" font-family="sans-serif" font-size="22" text-anchor="middle" fill="#000">进</text><text x="859.2" y="362.4" font-family="sans-serif" font-size="22" text-anchor="middle" fill="#000">度</text><text x="859.2" y="387.7" font-family="sans-serif" font-size="22" text-anchor="middle" fill="#000">跟</text><text x="859.2" y="413" font-family="sans-serif" font-size="22" text-anchor="middle" fill="#000">踪</text><rect x="888" y="200" width="26.4" height="286.3" fill="#fff" stroke="#000" stroke-width="1"/><text x="901.2" y="311.80000000000007" font-family="sans-serif" font-size="22" text-anchor="middle" fill="#000">费</text><text x="901.2" y="337.1000000000001" font-family="sans-serif" font-size="22" text-anchor="middle" fill="#000">用</text><text x="901.2" y="362.4000000000001" font-family="sans-serif" font-size="22" text-anchor="middle" fill="#000">录</text><text x="901.2" y="387.70000000000005" font-family="sans-serif" font-size="22" text-anchor="middle" fill="#000">入</text><rect x="930" y="200" width="26.4" height="286.3" fill="#fff" stroke="#000" stroke-width="1"/><text x="943.2" y="286.5" font-family="sans-serif" font-size="22" text-anchor="middle" fill="#000">历</text><text x="943.2" y="311.8" font-family="sans-serif" font-size="22" text-anchor="middle" fill="#000">史</text><text x="943.2" y="337.1" font-family="sans-serif" font-size="22" text-anchor="middle" fill="#000">订</text><text x="943.2" y="362.4" font-family="sans-serif" font-size="22" text-anchor="middle" fill="#000">单</text><text x="943.2" y="387.7" font-family="sans-serif" font-size="22" text-anchor="middle" fill="#000">查</text><text x="943.2" y="413" font-family="sans-serif" font-size="22" text-anchor="middle" fill="#000">询</text><rect x="972" y="200" width="26.4" height="286.3" fill="#fff" stroke="#000" stroke-width="1"/><text x="985.2" y="286.5" font-family="sans-serif" font-size="22" text-anchor="middle" fill="#000">收</text><text x="985.2" y="311.8" font-family="sans-serif" font-size="22" text-anchor="middle" fill="#000">入</text><text x="985.2" y="337.1" font-family="sans-serif" font-size="22" text-anchor="middle" fill="#000">统</text><text x="985.2" y="362.4" font-family="sans-serif" font-size="22" text-anchor="middle" fill="#000">计</text><text x="985.2" y="387.7" font-family="sans-serif" font-size="22" text-anchor="middle" fill="#000">查</text><text x="985.2" y="413" font-family="sans-serif" font-size="22" text-anchor="middle" fill="#000">看</text><path d="M 439 55.2 L 439 82.6 L 139 82.6 L 139 110" fill="none" stroke="#000" stroke-width="1"/><path d="M 139 145.2 L 139 172.6 L 13.2 172.6 L 13.2 200" fill="none" stroke="#000" stroke-width="1"/><path d="M 139 145.2 L 139 172.6 L 55.2 172.6 L 55.2 200" fill="none" stroke="#000" stroke-width="1"/><path d="M 139 145.2 L 139 172.6 L 97.2 172.6 L 97.2 200" fill="none" stroke="#000" stroke-width="1"/><path d="M 139 145.2 L 139 172.6 L 139.2 172.6 L 139.2 200" fill="none" stroke="#000" stroke-width="1"/><path d="M 139 145.2 L 139 172.6 L 181.2 172.6 L 181.2 200" fill="none" stroke="#000" stroke-width="1"/><path d="M 139 145.2 L 139 172.6 L 223.2 172.6 L 223.2 200" fill="none" stroke="#000" stroke-width="1"/><path d="M 139 145.2 L 139 172.6 L 265.2 172.6 L 265.2 200" fill="none" stroke="#000" stroke-width="1"/><path d="M 439 55.2 L 439 82.6 L 478 82.6 L 478 110" fill="none" stroke="#000" stroke-width="1"/><path d="M 478 145.2 L 478 172.6 L 331.2 172.6 L 331.2 200" fill="none" stroke="#000" stroke-width="1"/><path d="M 478 145.2 L 478 172.6 L 373.2 172.6 L 373.2 200" fill="none" stroke="#000" stroke-width="1"/><path d="M 478 145.2 L 478 172.6 L 415.2 172.6 L 415.2 200" fill="none" stroke="#000" stroke-width="1"/><path d="M 478 145.2 L 478 172.6 L 457.2 172.6 L 457.2 200" fill="none" stroke="#000" stroke-width="1"/><path d="M 478 145.2 L 478 172.6 L 499.2 172.6 L 499.2 200" fill="none" stroke="#000" stroke-width="1"/><path d="M 478 145.2 L 478 172.6 L 541.2 172.6 L 541.2 200" fill="none" stroke="#000" stroke-width="1"/><path d="M 478 145.2 L 478 172.6 L 583.2 172.6 L 583.2 200" fill="none" stroke="#000" stroke-width="1"/><path d="M 478 145.2 L 478 172.6 L 625.2 172.6 L 625.2 200" fill="none" stroke="#000" stroke-width="1"/><path d="M 439 55.2 L 439 82.6 L 838 82.6 L 838 110" fill="none" stroke="#000" stroke-width="1"/><path d="M 838 145.2 L 838 172.6 L 691.2 172.6 L 691.2 200" fill="none" stroke="#000" stroke-width="1"/><path d="M 838 145.2 L 838 172.6 L 733.2 172.6 L 733.2 200" fill="none" stroke="#000" stroke-width="1"/><path d="M 838 145.2 L 838 172.6 L 775.2 172.6 L 775.2 200" fill="none" stroke="#000" stroke-width="1"/><path d="M 838 145.2 L 838 172.6 L 817.2 172.6 L 817.2 200" fill="none" stroke="#000" stroke-width="1"/><path d="M 838 145.2 L 838 172.6 L 859.2 172.6 L 859.2 200" fill="none" stroke="#000" stroke-width="1"/><path d="M 838 145.2 L 838 172.6 L 901.2 172.6 L 901.2 200" fill="none" stroke="#000" stroke-width="1"/><path d="M 838 145.2 L 838 172.6 L 943.2 172.6 L 943.2 200" fill="none" stroke="#000" stroke-width="1"/><path d="M 838 145.2 L 838 172.6 L 985.2 172.6 L 985.2 200" fill="none" stroke="#000" stroke-width="1"/></svg>